<svg width="15" height="15" viewBox="0 0 15 15" fill="none" xmlns="http://www.w3.org/2000/svg">
    <path d="M14.0039 15C9.66797 15 5.33203 15 0.996094 15C0.507422 14.8248 0.174023 14.4943 0 14.0039C0 10.1367 0 6.26953 0 2.40234C0.0205078 2.37129 0.0474609 2.34258 0.0597656 2.30859C0.284766 1.70801 0.687891 1.4209 1.3207 1.41445C1.56445 1.41211 1.8082 1.41387 2.05195 1.41387C2.45742 1.41387 2.86348 1.41387 3.28828 1.41387C3.28828 1.13086 3.30234 0.887109 3.28477 0.645703C3.2625 0.348047 3.37031 0.136523 3.63281 0C3.71074 0 3.78926 0 3.86719 0C4.1291 0.137109 4.23691 0.349219 4.21523 0.646875C4.19707 0.895312 4.21172 1.14551 4.21172 1.39336C5.17559 1.39336 6.09668 1.39336 7.03887 1.39336C7.03887 1.13086 7.05293 0.887109 7.03535 0.646289C7.0125 0.348633 7.12031 0.136523 7.38281 0C7.46074 0 7.53926 0 7.61719 0C7.8791 0.137109 7.98691 0.349219 7.96523 0.646875C7.94707 0.895312 7.96172 1.14551 7.96172 1.39336C8.92559 1.39336 9.84668 1.39336 10.7889 1.39336C10.7889 1.13086 10.8029 0.887109 10.7854 0.646289C10.7631 0.348633 10.8697 0.135937 11.1328 0C11.2107 0 11.2893 0 11.3672 0C11.6291 0.137109 11.7369 0.348633 11.7152 0.646289C11.6971 0.894727 11.7117 1.14492 11.7117 1.41387C12.0539 1.41387 12.3545 1.41387 12.6557 1.41387C12.9973 1.41387 13.3383 1.41621 13.6799 1.41328C14.3719 1.40742 14.7645 1.79941 15 2.40234C15 6.26953 15 10.1367 15 14.0039C14.8242 14.492 14.4932 14.8254 14.0039 15ZM4.21113 2.34844C4.21113 2.65371 4.21465 2.92617 4.20996 3.19863C4.20469 3.52383 4.0248 3.73477 3.75762 3.74063C3.48047 3.74648 3.29355 3.52852 3.28887 3.18633C3.28535 2.90801 3.28828 2.6291 3.28828 2.33672C2.64785 2.33672 2.05312 2.33613 1.4584 2.33672C0.999023 2.3373 0.929883 2.40469 0.929883 2.85762C0.929883 6.42129 0.929883 9.98438 0.929883 13.548C0.929883 14.0021 0.998438 14.0701 1.45723 14.0701C5.46973 14.0701 9.48223 14.0701 13.4947 14.0701C14.0168 14.0701 14.0695 14.0186 14.0695 13.507C14.0695 9.97266 14.0695 6.43887 14.0695 2.90449C14.0695 2.8459 14.0684 2.7873 14.0695 2.72871C14.0736 2.46152 13.9418 2.33437 13.6758 2.33613C13.2562 2.33848 12.8361 2.33672 12.4166 2.33672C12.1869 2.33672 11.9572 2.33672 11.7117 2.33672C11.7117 2.65371 11.7152 2.92617 11.7105 3.19863C11.7053 3.52383 11.5254 3.73535 11.2588 3.74121C10.9811 3.74707 10.7941 3.52969 10.7895 3.1875C10.7859 2.90918 10.7889 2.63027 10.7889 2.35957C9.82148 2.35957 8.89981 2.35957 7.96172 2.35957C7.96172 2.6543 7.96523 2.92676 7.96055 3.19922C7.95527 3.525 7.77598 3.73535 7.50879 3.7418C7.23164 3.74766 7.04414 3.52969 7.03945 3.1875C7.03594 2.90918 7.03887 2.63027 7.03887 2.34961C6.07793 2.34844 5.16328 2.34844 4.21113 2.34844Z" fill="white"/>
    <path d="M5.13989 5.64907C5.13989 6.10962 5.13989 6.54556 5.13989 7.00259C4.53461 7.00259 3.93637 7.00259 3.31293 7.00259C3.31293 6.56489 3.31293 6.11548 3.31293 5.64907C3.91352 5.64907 4.51176 5.64907 5.13989 5.64907Z" fill="white"/>
    <path d="M6.59072 5.64594C7.20127 5.64594 7.79951 5.64594 8.41358 5.64594C8.41358 6.1018 8.41358 6.54477 8.41358 7.0059C7.80889 7.0059 7.21065 7.0059 6.59072 7.0059C6.59072 6.56527 6.59072 6.1223 6.59072 5.64594Z" fill="white"/>
    <path d="M11.6879 7.01333C11.0715 7.01333 10.4803 7.01333 9.86977 7.01333C9.86977 6.5604 9.86977 6.11743 9.86977 5.65336C10.4663 5.65336 11.0651 5.65336 11.6879 5.65336C11.6879 6.09282 11.6879 6.54282 11.6879 7.01333Z" fill="white"/>
    <path d="M5.13973 7.99176C5.13973 8.45465 5.13973 8.89059 5.13973 9.34703C4.5327 9.34703 3.93446 9.34703 3.31161 9.34703C3.31161 8.90699 3.31161 8.45699 3.31161 7.99176C3.91512 7.99176 4.51336 7.99176 5.13973 7.99176Z" fill="white"/>
    <path d="M8.41629 9.35801C7.79285 9.35801 7.20105 9.35801 6.58992 9.35801C6.58992 8.90625 6.58992 8.46328 6.58992 7.99805C7.19051 7.99805 7.79578 7.99805 8.41629 7.99805C8.41629 8.44863 8.41629 8.8916 8.41629 9.35801Z" fill="white"/>
    <path d="M11.6882 9.35285C11.0841 9.35285 10.4853 9.35285 9.86885 9.35285C9.86885 8.90227 9.86885 8.45988 9.86885 7.99641C10.4677 7.99641 11.0665 7.99641 11.6882 7.99641C11.6882 8.4382 11.6882 8.88762 11.6882 9.35285Z" fill="white"/>
    <path d="M3.31293 10.3303C3.92817 10.3303 4.51996 10.3303 5.12993 10.3303C5.12993 10.7833 5.12993 11.2257 5.12993 11.6903C4.53403 11.6903 3.93578 11.6903 3.31293 11.6903C3.31293 11.2514 3.31293 10.802 3.31293 10.3303Z" fill="white"/>
    <path d="M6.58539 11.689C6.58539 11.2402 6.58539 10.7978 6.58539 10.3373C7.19301 10.3373 7.79125 10.3373 8.41059 10.3373C8.41059 10.7802 8.41059 11.2232 8.41059 11.689C7.81176 11.689 7.20649 11.689 6.58539 11.689Z" fill="white"/>
    <path d="M11.7001 10.3434C11.7001 10.8028 11.7001 11.2388 11.7001 11.6929C11.0907 11.6929 10.4925 11.6929 9.87198 11.6929C9.87198 11.2528 9.87198 10.8104 9.87198 10.3434C10.4673 10.3434 11.0726 10.3434 11.7001 10.3434Z" fill="white"/>
</svg>
