<svg width="12" height="12" viewBox="0 0 12 12" fill="none" xmlns="http://www.w3.org/2000/svg">
    <path fill-rule="evenodd" clip-rule="evenodd" d="M8.0343 7.54717H8.57633L12 10.9777L10.9777 12L7.54717 8.57633V8.03431L7.36192 7.8422C6.57976 8.51458 5.56432 8.91938 4.45969 8.91938C1.99657 8.91938 0 6.92281 0 4.45969C0 1.99657 1.99657 0 4.45969 0C6.92281 0 8.91938 1.99657 8.91938 4.45969C8.91938 5.56432 8.51458 6.57976 7.8422 7.36192L8.0343 7.54717ZM1.37221 4.45969C1.37221 6.1681 2.75129 7.54717 4.45969 7.54717C6.1681 7.54717 7.54717 6.1681 7.54717 4.45969C7.54717 2.75129 6.1681 1.37221 4.45969 1.37221C2.75129 1.37221 1.37221 2.75129 1.37221 4.45969Z" fill="black" fill-opacity="0.8"/>
</svg>
